<?xml version="1.0" standalone="no"?>
<!DOCTYPE svg PUBLIC "-//W3C//DTD SVG 20010904//EN"
 "http://www.w3.org/TR/2001/REC-SVG-20010904/DTD/svg10.dtd">
<svg version="1.0" xmlns="http://www.w3.org/2000/svg"
 width="1440.000000pt" height="1440.000000pt" viewBox="0 0 1440.000000 1440.000000"
 preserveAspectRatio="xMidYMid meet">
<metadata>
Created by potrace 1.14, written by Peter Selinger 2001-2017
</metadata>
<g transform="translate(0.000000,1440.000000) scale(0.100000,-0.100000)"
fill="#000000" stroke="none">
<path d="M2926 12987 c-23 -14 -53 -37 -71 -54 -8 -7 -19 -13 -26 -13 -7 0 -9
-3 -6 -7 4 -3 -10 -25 -31 -48 -51 -59 -82 -99 -82 -108 0 -5 -6 -5 -12 -1 -7
4 -10 4 -6 -1 4 -4 -6 -26 -22 -48 -17 -23 -30 -47 -30 -53 0 -7 -6 -17 -12
-21 -7 -4 -19 -19 -26 -32 -8 -13 -23 -40 -34 -60 -11 -20 -29 -48 -40 -63
-11 -16 -16 -28 -13 -28 3 0 -2 -12 -13 -27 -33 -48 -37 -57 -21 -48 8 5 4 -3
-9 -17 -13 -14 -25 -32 -27 -39 -9 -39 -18 -59 -28 -59 -6 0 -7 -3 -4 -6 3 -4
1 -16 -5 -28 -6 -11 -13 -31 -14 -44 -2 -13 -7 -29 -13 -36 -16 -19 -24 -65
-25 -136 -1 -61 0 -65 21 -64 17 0 28 -10 43 -41 11 -23 31 -48 45 -55 14 -7
25 -19 25 -27 0 -7 18 -32 40 -54 22 -23 40 -43 40 -46 0 -2 9 -13 20 -25 11
-12 20 -27 20 -34 0 -7 8 -15 18 -18 24 -8 143 -130 146 -150 1 -10 16 -26 32
-37 16 -10 25 -19 21 -19 -8 0 45 -55 60 -61 4 -2 18 -24 30 -49 12 -25 38
-61 57 -79 20 -19 36 -41 36 -48 0 -7 5 -13 10 -13 6 0 10 -6 10 -12 0 -17 44
-68 59 -68 10 0 12 -5 11 -25 -1 -3 28 -34 62 -68 35 -35 72 -82 82 -105 11
-23 23 -42 28 -42 5 0 6 -4 3 -10 -3 -5 -2 -10 3 -10 8 0 21 -27 26 -53 0 -4
6 -11 12 -15 16 -10 45 -73 38 -83 -3 -5 -1 -9 4 -9 5 0 9 -6 10 -12 2 -23 8
-43 20 -65 7 -13 10 -23 7 -23 -3 0 1 -10 9 -22 12 -19 25 -59 42 -120 1 -5 3
-11 4 -15 2 -5 4 -12 5 -18 0 -5 11 -29 23 -51 11 -23 22 -60 24 -83 1 -23 5
-44 10 -47 4 -3 5 -11 1 -19 -3 -9 0 -22 7 -30 6 -8 9 -19 5 -25 -3 -5 -2 -10
2 -10 7 0 44 -87 48 -115 1 -5 3 -12 5 -15 1 -3 4 -21 6 -40 4 -42 7 -56 23
-95 7 -16 15 -43 18 -60 2 -16 7 -37 10 -45 3 -8 7 -45 8 -81 2 -37 6 -72 9
-78 4 -6 10 -32 13 -58 3 -27 10 -54 16 -61 10 -13 14 -36 22 -147 10 -135 12
-151 28 -182 10 -18 17 -48 17 -68 0 -19 4 -35 9 -35 4 0 7 -27 6 -60 -1 -33
1 -60 6 -60 4 0 9 -28 9 -62 3 -136 7 -177 19 -192 6 -8 8 -17 3 -20 -10 -6
-3 -66 7 -66 8 0 9 -3 13 -65 2 -22 5 -44 8 -50 3 -5 5 -41 4 -80 0 -38 2 -74
6 -80 3 -5 7 -23 8 -39 1 -16 7 -35 13 -42 9 -11 8 -14 0 -14 -7 0 -9 -4 -6
-10 3 -5 6 -45 6 -87 0 -673 -3 -963 -9 -963 -4 0 -6 -46 -6 -102 1 -57 -1
-107 -5 -113 -5 -9 -9 -102 -14 -337 -1 -49 -6 -88 -11 -88 -4 0 -6 -8 -4 -18
3 -10 -1 -23 -9 -30 -9 -9 -10 -18 -4 -30 6 -11 6 -24 0 -35 -7 -12 -6 -17 2
-17 9 0 9 -3 0 -14 -11 -13 -18 -101 -21 -263 -1 -35 -5 -63 -9 -63 -5 0 -7
-27 -6 -60 1 -34 -2 -60 -8 -60 -6 0 -6 -5 0 -12 10 -14 10 -23 1 -48 -6 -14
-21 -75 -31 -127 -3 -13 -1 -26 4 -29 6 -3 5 -12 -3 -21 -13 -16 -15 -33 -22
-138 -2 -33 -5 -60 -6 -60 -2 0 -10 -33 -14 -55 -1 -9 -5 -20 -9 -27 -11 -18
-18 -71 -28 -213 -1 -8 -8 -35 -16 -60 -9 -25 -16 -54 -17 -65 -1 -11 -5 -26
-9 -32 -14 -22 -25 -92 -30 -190 -1 -17 -4 -30 -8 -27 -4 2 -10 -20 -14 -48
-4 -29 -13 -74 -20 -100 -7 -25 -11 -49 -8 -52 4 -3 1 -6 -6 -6 -6 0 -11 -6
-10 -12 3 -16 -9 -65 -23 -98 -13 -28 -13 -30 -23 -85 -8 -48 -13 -70 -15 -70
-1 0 -3 -11 -5 -25 -4 -47 -38 -170 -46 -170 -4 0 -6 -9 -4 -20 2 -11 1 -20
-3 -20 -4 0 -8 -19 -10 -43 -1 -23 -7 -57 -13 -74 -6 -18 -8 -37 -4 -43 3 -5
2 -10 -3 -10 -9 0 -20 -28 -28 -70 -4 -25 -12 -55 -14 -55 -1 0 -3 -7 -5 -15
-1 -8 -8 -42 -14 -75 -7 -33 -15 -67 -18 -75 -8 -20 -14 -41 -17 -60 -1 -9 -5
-20 -8 -25 -5 -9 -8 -37 -12 -107 0 -16 -4 -28 -7 -28 -4 0 -10 -15 -13 -33
-3 -17 -9 -43 -12 -57 -3 -14 -6 -31 -6 -37 -1 -7 -6 -13 -11 -13 -5 0 -7 -9
-4 -20 3 -11 1 -20 -3 -20 -5 0 -12 -15 -15 -33 -4 -17 -11 -36 -15 -42 -5 -5
-9 -13 -9 -17 -1 -5 -1 -9 -2 -10 0 -2 -2 -11 -5 -21 -2 -9 -6 -25 -8 -35 -3
-9 -5 -17 -6 -17 -1 0 -3 -11 -5 -25 -1 -14 -8 -38 -15 -55 -7 -16 -14 -43
-16 -58 -1 -16 -7 -34 -13 -41 -6 -7 -8 -16 -4 -19 3 -4 1 -7 -4 -7 -6 0 -14
-18 -18 -40 -4 -22 -11 -40 -16 -40 -6 0 -7 -5 -4 -11 4 -5 -5 -36 -20 -67
-15 -31 -31 -68 -37 -82 -6 -14 -16 -38 -24 -55 -28 -62 -57 -130 -61 -142 -1
-7 -5 -19 -6 -25 -2 -7 -10 -26 -17 -43 -7 -16 -15 -64 -17 -106 -6 -90 5
-101 65 -68 44 25 143 126 192 199 8 12 21 29 28 36 7 8 10 14 6 14 -4 0 3 8
14 19 12 10 22 24 22 30 0 7 9 21 20 33 11 12 20 28 20 35 0 7 7 13 15 13 9 0
12 6 9 15 -4 8 -1 15 5 15 6 0 11 7 11 15 0 8 5 15 10 15 6 0 9 3 8 8 -3 12
25 62 34 62 5 0 7 4 3 9 -3 5 2 16 10 24 8 9 15 22 15 30 0 8 7 17 15 21 8 3
14 9 13 13 -3 16 14 63 24 63 5 0 7 4 3 9 -3 6 2 14 11 19 9 5 15 11 13 13 -4
7 14 54 23 60 5 3 11 15 13 25 2 10 4 20 5 22 2 1 3 5 5 10 1 4 11 27 23 52
12 25 22 51 22 58 0 6 5 12 11 12 5 0 8 4 4 9 -3 5 -1 12 5 16 5 3 10 13 10
21 0 8 7 31 16 52 10 20 18 42 20 47 1 6 14 35 27 66 14 31 23 60 20 63 -4 3
-1 6 5 6 6 0 9 7 6 15 -4 8 -2 15 3 15 5 0 10 6 11 13 4 44 22 118 32 132 4 6
11 24 15 40 5 17 10 36 12 43 1 6 4 18 6 25 1 6 6 17 10 23 7 12 38 129 39
152 1 6 5 12 9 12 3 0 10 21 15 48 4 26 8 49 9 52 0 3 7 16 14 29 8 14 16 41
18 60 3 20 9 41 13 46 5 6 7 23 6 38 -2 15 0 27 4 27 7 0 31 113 33 158 0 12
5 22 11 22 5 0 6 3 3 6 -3 4 -2 15 4 26 6 11 12 39 13 64 2 24 8 50 15 57 6 8
8 17 5 20 -3 3 -2 12 2 19 5 7 9 21 10 31 1 9 3 19 4 22 1 3 3 8 5 13 1 4 6
18 12 32 12 29 21 69 28 124 2 21 10 44 16 52 6 8 8 14 4 14 -4 0 -3 6 3 13
11 13 21 57 29 122 2 22 7 47 10 55 3 8 7 20 8 25 1 6 3 12 4 15 2 3 4 16 6
30 7 46 11 65 19 83 5 9 6 26 3 37 -3 11 -1 20 4 20 5 0 9 9 9 19 0 11 5 23
10 26 8 5 7 11 -1 21 -8 10 -8 14 0 14 6 0 11 11 11 24 0 13 4 26 10 28 5 2
11 17 13 33 2 17 6 35 9 40 8 15 20 67 23 100 1 17 6 46 10 65 4 19 7 43 7 53
0 9 3 17 7 17 4 0 7 21 6 46 0 25 2 47 6 50 7 4 24 83 21 97 -1 4 3 7 9 7 5 0
7 5 4 10 -4 6 -2 16 3 23 5 7 10 19 11 27 5 58 8 77 13 86 4 5 6 32 6 60 0 27
7 78 17 114 9 36 19 74 22 85 3 11 6 46 6 78 1 31 5 57 9 57 4 0 7 8 7 18 0
42 10 111 22 152 7 25 14 52 17 60 2 8 5 56 5 105 1 50 5 95 8 100 4 6 6 36 5
68 -2 31 1 57 4 57 4 0 8 33 9 74 2 81 15 202 29 256 4 19 7 69 6 110 -3 60 0
77 13 88 9 6 13 12 7 12 -8 0 -8 83 -1 263 1 20 6 37 11 37 5 0 4 6 -1 13 -5
6 -7 39 -4 72 7 93 5 1346 -3 1385 -4 19 -7 68 -8 108 0 39 -4 72 -8 72 -3 0
-7 23 -7 51 -1 28 -6 56 -12 62 -6 6 -11 29 -11 52 0 22 -4 56 -9 76 -5 21 -5
43 0 50 4 8 3 16 -3 20 -6 4 -11 35 -12 70 -1 35 -5 70 -10 78 -7 10 -6 12 4
6 10 -6 11 -4 4 6 -14 22 -14 89 -1 89 15 0 77 -57 77 -71 0 -6 4 -8 8 -5 10
6 82 -41 82 -53 0 -4 12 -14 27 -22 39 -20 73 -50 73 -65 0 -7 10 -16 23 -20
21 -6 63 -36 98 -69 9 -8 20 -15 24 -15 5 0 29 -22 55 -48 25 -26 60 -54 78
-61 17 -7 34 -21 37 -31 3 -10 19 -21 35 -25 15 -3 31 -12 33 -20 3 -7 27 -28
54 -46 26 -18 55 -40 63 -49 8 -9 30 -23 48 -31 17 -7 32 -17 32 -21 0 -4 26
-24 58 -45 31 -21 67 -48 80 -60 13 -13 29 -23 36 -23 8 0 17 -7 20 -16 4 -9
9 -14 13 -11 3 4 18 -2 33 -13 16 -11 31 -20 35 -20 4 0 15 -8 24 -18 25 -28
77 -62 95 -62 9 0 16 -4 16 -10 0 -5 14 -16 30 -25 17 -9 30 -13 30 -10 0 3
20 -8 45 -25 25 -17 49 -29 54 -25 5 3 12 1 16 -5 3 -5 21 -17 40 -26 19 -9
35 -20 35 -25 0 -5 7 -9 15 -9 8 0 15 -5 15 -11 0 -6 6 -9 13 -6 6 2 20 -5 30
-16 9 -11 26 -21 36 -22 11 -1 25 -6 33 -12 7 -7 26 -14 42 -17 16 -3 37 -14
48 -26 10 -11 27 -20 38 -20 10 0 26 -7 34 -16 9 -8 25 -16 36 -17 11 -1 20
-4 20 -8 0 -4 8 -9 18 -13 21 -7 76 -39 98 -57 9 -7 23 -14 31 -15 8 -2 23
-10 32 -18 10 -9 32 -19 49 -22 18 -4 32 -9 32 -13 0 -10 56 -41 63 -35 3 3
24 -7 46 -22 23 -15 44 -24 47 -21 3 3 14 -3 25 -14 10 -10 30 -19 43 -19 14
0 27 -4 31 -9 3 -5 19 -12 35 -16 17 -4 30 -11 30 -16 0 -6 4 -7 10 -4 6 3 10
2 10 -4 0 -6 18 -15 40 -21 21 -6 46 -17 54 -26 8 -8 17 -14 18 -14 6 3 66
-22 122 -51 32 -16 61 -27 64 -25 2 3 17 -1 33 -10 16 -8 30 -13 31 -12 2 2
19 -7 38 -19 19 -12 38 -22 42 -22 17 -2 118 -56 118 -63 0 -13 -34 -48 -46
-48 -6 0 -17 -7 -25 -16 -7 -8 -35 -30 -63 -49 -28 -19 -62 -44 -76 -57 -13
-13 -47 -37 -75 -55 -78 -50 -116 -76 -133 -95 -9 -10 -21 -18 -27 -18 -6 0
-16 -9 -23 -20 -7 -12 -17 -18 -22 -15 -6 3 -10 1 -10 -4 0 -6 -6 -11 -14 -11
-8 0 -16 -3 -18 -7 -4 -11 -70 -58 -90 -66 -10 -3 -18 -10 -18 -15 0 -5 -16
-17 -35 -28 -19 -10 -35 -22 -35 -26 0 -5 -7 -8 -15 -8 -8 0 -15 -3 -15 -7 0
-5 -17 -19 -38 -33 -20 -14 -39 -27 -42 -30 -3 -3 -27 -20 -55 -38 -27 -17
-55 -35 -61 -40 -5 -5 -21 -15 -34 -22 -26 -14 -30 -17 -81 -60 -20 -16 -41
-30 -47 -30 -5 0 -12 -6 -15 -13 -2 -7 -22 -21 -43 -32 -22 -11 -41 -22 -44
-25 -14 -16 -111 -80 -120 -80 -6 0 -10 -4 -10 -10 0 -5 -23 -21 -50 -35 -28
-14 -60 -35 -70 -45 -11 -11 -20 -18 -20 -15 0 7 -25 -13 -48 -38 -9 -10 -30
-25 -47 -33 -16 -8 -45 -28 -63 -44 -19 -16 -42 -32 -53 -35 -10 -4 -19 -10
-19 -15 0 -4 -24 -20 -54 -34 -30 -15 -59 -33 -66 -41 -7 -8 -16 -15 -21 -15
-4 0 -19 -10 -32 -22 -28 -27 -74 -59 -82 -58 -9 1 -63 -29 -77 -43 -7 -7 -34
-26 -60 -41 -27 -15 -48 -32 -48 -37 0 -5 -5 -9 -10 -9 -13 0 -69 -38 -91 -63
-9 -9 -19 -17 -23 -17 -3 0 -22 -16 -40 -35 -19 -19 -32 -35 -30 -35 3 0 -13
-18 -35 -40 -22 -22 -36 -40 -33 -40 4 -1 -4 -10 -17 -20 -13 -11 -19 -20 -15
-20 5 0 4 -4 -1 -8 -6 -4 -24 -27 -40 -52 -16 -25 -32 -47 -35 -50 -3 -3 -19
-27 -35 -55 -15 -27 -33 -53 -39 -57 -6 -4 -8 -8 -4 -8 4 0 -8 -25 -27 -55
-20 -30 -33 -55 -29 -55 4 0 -1 -8 -10 -19 -9 -10 -18 -28 -19 -39 0 -12 -3
-19 -6 -17 -5 6 -20 -23 -55 -110 -16 -38 -35 -85 -43 -103 -8 -18 -16 -43
-17 -55 -2 -12 -7 -30 -10 -39 -4 -9 -5 -56 -3 -105 6 -107 7 -114 14 -133 6
-15 13 -59 16 -92 1 -10 5 -18 9 -18 4 0 8 -9 8 -20 0 -11 4 -20 8 -20 9 0 35
-71 35 -95 0 -8 4 -15 9 -15 5 0 6 -5 3 -10 -3 -6 -1 -10 5 -10 6 0 9 -4 6 -9
-3 -5 3 -20 14 -34 11 -14 20 -31 20 -38 0 -7 12 -33 27 -58 15 -25 29 -52 30
-58 8 -36 12 -48 13 -48 1 0 4 -12 6 -27 1 -15 16 -47 33 -72 17 -24 28 -46
25 -48 -2 -3 2 -11 11 -18 8 -7 15 -21 15 -31 0 -11 4 -19 9 -19 5 0 15 -16
22 -35 7 -19 17 -35 22 -35 5 0 7 -6 4 -14 -3 -8 -1 -16 4 -18 6 -2 11 -12 13
-21 1 -10 9 -23 17 -28 8 -5 10 -9 5 -9 -5 0 -1 -9 8 -19 10 -11 15 -25 11
-30 -3 -6 0 -14 9 -17 8 -3 12 -12 10 -19 -3 -7 0 -16 5 -20 6 -3 9 -11 6 -16
-4 -5 -2 -9 3 -9 12 0 52 -66 52 -85 0 -7 7 -16 16 -19 9 -4 14 -9 11 -12 -3
-4 0 -13 8 -21 8 -8 15 -23 15 -34 0 -10 4 -19 10 -19 5 0 7 -7 4 -15 -4 -8
-1 -15 6 -15 6 0 9 -4 5 -9 -3 -6 3 -18 14 -28 24 -22 53 -88 44 -97 -4 -3 2
-13 13 -20 10 -8 19 -18 20 -23 2 -20 20 -50 46 -78 15 -16 28 -40 28 -52 0
-12 8 -30 19 -40 10 -10 33 -46 52 -80 18 -35 36 -63 41 -63 4 0 8 -7 8 -15 0
-8 4 -15 9 -15 5 0 7 -8 4 -18 -2 -10 3 -24 11 -31 9 -8 16 -19 16 -25 0 -7
10 -23 23 -36 12 -14 21 -29 19 -34 -2 -4 6 -15 18 -23 11 -8 20 -22 20 -32 0
-9 12 -27 26 -40 14 -12 23 -29 20 -36 -3 -8 3 -19 14 -25 11 -6 20 -20 20
-30 0 -11 3 -20 8 -20 8 0 32 -49 32 -67 0 -7 5 -13 11 -13 5 0 8 -4 4 -9 -3
-6 4 -15 15 -21 11 -6 20 -17 20 -26 0 -8 18 -39 40 -68 22 -29 40 -60 40 -68
0 -19 24 -41 34 -30 4 4 7 2 6 -3 -6 -26 2 -47 24 -66 14 -12 22 -28 19 -36
-3 -8 4 -21 16 -29 12 -9 19 -20 16 -25 -4 -5 1 -17 10 -26 22 -22 65 -90 65
-103 0 -6 9 -21 20 -33 50 -56 77 -93 74 -102 -2 -5 10 -18 27 -28 23 -13 30
-23 26 -37 -3 -11 0 -18 5 -17 6 1 25 -20 44 -48 19 -27 37 -54 42 -60 24 -33
46 -71 44 -79 -3 -9 36 -46 48 -46 4 0 7 -8 6 -17 0 -9 13 -26 31 -37 18 -12
32 -27 33 -33 0 -7 5 -13 10 -13 6 0 10 -7 10 -17 0 -9 3 -13 7 -10 3 4 11 2
18 -3 14 -12 87 32 125 74 14 16 36 41 50 55 25 28 30 34 78 108 15 23 32 43
38 43 6 0 11 6 11 13 0 13 41 77 57 88 5 4 5 12 2 18 -4 6 -3 11 3 11 10 0 42
53 40 66 0 4 4 10 9 13 10 6 122 223 127 245 1 6 9 28 19 48 9 21 16 42 16 47
0 5 5 22 12 38 6 15 10 32 9 37 -1 4 2 13 7 20 15 18 11 109 -5 128 -8 9 -12
22 -8 27 3 6 -1 11 -9 11 -9 0 -16 4 -16 9 0 5 -9 13 -20 16 -11 3 -23 17 -26
31 -3 13 -10 24 -16 24 -5 0 -6 5 -3 10 4 6 1 9 -6 8 -7 -2 -23 16 -35 40 -12
24 -30 53 -40 65 -11 12 -28 38 -39 57 -10 19 -29 46 -41 59 -13 14 -21 28
-18 33 3 4 0 8 -6 8 -17 0 -80 77 -80 99 0 5 -13 20 -28 33 -29 24 -32 29 -32
53 0 8 -12 26 -27 40 -15 14 -25 25 -20 25 4 0 -1 9 -10 20 -9 10 -18 26 -19
35 -1 9 -10 25 -18 34 -9 10 -16 21 -16 26 0 5 -6 16 -14 24 -8 9 -16 25 -18
36 -4 24 -20 45 -30 38 -5 -2 -8 5 -8 16 0 12 -4 21 -10 21 -5 0 -10 9 -10 19
0 11 -10 27 -23 36 -12 8 -22 19 -23 23 -1 20 -39 82 -50 82 -14 0 -24 23 -24
56 0 13 -4 24 -9 24 -5 0 -14 14 -21 30 -7 17 -18 30 -25 30 -7 0 -12 10 -11
22 1 13 -10 34 -25 48 -15 14 -30 35 -34 48 -3 12 -11 22 -16 22 -6 0 -8 4 -5
8 3 5 -8 24 -24 43 -16 19 -29 42 -30 52 0 9 -4 17 -10 17 -5 0 -10 7 -10 16
0 16 -38 76 -52 82 -4 2 -8 15 -8 28 0 13 -9 29 -20 36 -11 7 -20 18 -20 25 0
7 -8 22 -17 32 -9 11 -18 30 -20 43 -2 13 -12 30 -22 38 -10 8 -24 31 -32 50
-7 19 -19 42 -26 50 -7 8 -14 20 -14 25 -2 14 -39 87 -54 105 -7 8 -18 33 -25
55 -7 22 -20 48 -29 59 -9 10 -15 21 -13 25 1 3 -5 14 -13 24 -8 9 -15 22 -15
27 0 11 -21 52 -31 60 -4 3 -18 29 -31 58 -13 29 -27 50 -30 47 -3 -3 -5 5 -4
17 1 13 -9 31 -21 41 -13 10 -21 23 -18 28 3 5 0 19 -7 31 -7 13 -11 26 -10
31 1 4 -3 7 -9 7 -6 0 -9 6 -7 12 3 7 -3 21 -13 32 -10 10 -25 33 -34 50 -9
17 -25 46 -36 64 -10 18 -21 41 -22 50 -1 9 -6 22 -10 29 -4 6 -4 18 -1 27 3
9 1 16 -5 16 -6 0 -11 8 -11 19 0 10 -7 24 -15 31 -18 15 -20 30 -4 30 6 0 21
9 33 20 49 45 113 93 136 104 14 6 31 16 38 23 8 7 35 27 60 45 26 18 53 38
60 45 7 7 20 13 28 13 8 0 14 5 14 12 0 6 3 9 6 6 3 -4 14 1 24 10 40 36 55
47 62 44 5 -1 8 1 8 6 0 4 20 18 44 32 25 13 43 28 40 32 -3 4 1 8 9 8 8 0 22
9 31 19 10 11 42 32 72 47 29 15 51 31 48 35 -3 5 -1 9 4 9 5 0 29 16 53 34
24 19 45 33 47 31 2 -2 13 5 25 16 11 10 27 19 34 19 8 0 11 5 8 10 -3 6 1 10
9 10 9 0 16 4 16 8 0 5 15 15 33 24 17 9 57 37 87 64 30 26 70 53 88 61 17 7
32 18 32 23 0 6 5 10 11 10 5 0 24 14 42 30 18 17 40 33 50 36 9 3 17 10 17
15 0 5 5 9 11 9 7 0 22 11 35 26 13 14 24 21 24 17 0 -4 4 -3 8 2 10 14 69 55
79 55 5 0 15 9 23 20 8 11 19 20 25 20 7 0 22 11 35 25 13 14 27 25 32 25 5 0
33 18 63 40 30 22 59 40 65 40 5 0 10 5 10 12 0 6 3 9 6 5 3 -3 14 2 23 11 10
10 37 33 61 52 23 19 57 47 74 61 17 14 42 34 55 45 13 10 28 24 35 29 6 6 23
16 39 24 15 8 27 18 27 23 0 4 5 8 10 8 12 0 24 9 75 56 19 17 41 34 50 37 8
4 15 11 15 17 0 6 5 8 10 5 6 -3 10 -2 10 3 0 10 95 72 111 72 5 0 9 3 9 8 0
7 47 32 61 32 17 0 22 -66 24 -355 1 -170 5 -321 10 -335 9 -28 11 -775 2
-805 -9 -30 -20 -87 -20 -112 -1 -13 -4 -23 -7 -23 -3 0 -6 -21 -7 -47 -3 -62
-11 -168 -13 -168 -1 0 -3 -13 -4 -30 -1 -16 -9 -48 -16 -70 -8 -22 -15 -43
-16 -47 -1 -5 -3 -11 -4 -15 -3 -10 -4 -15 -14 -78 -5 -27 -32 -122 -61 -210
-30 -88 -58 -183 -63 -212 -12 -66 -9 -340 3 -352 29 -29 158 -3 292 59 24 11
44 19 46 18 2 -2 11 5 21 15 10 9 24 18 32 18 23 2 27 4 64 19 19 7 38 18 41
22 3 5 16 10 27 11 12 1 22 5 22 10 0 4 4 6 9 2 5 -3 15 0 23 7 7 7 20 14 28
16 8 2 17 8 18 13 2 5 9 9 16 9 17 0 164 77 203 106 17 13 35 24 40 24 4 0 31
12 58 25 28 14 59 25 70 25 11 0 31 7 43 16 12 8 22 12 22 8 0 -3 15 5 33 18
30 23 69 44 212 117 135 68 175 92 175 103 0 6 3 8 7 5 3 -4 12 -2 20 4 7 6
13 8 13 4 0 -4 7 -2 15 5 8 7 15 10 15 7 0 -4 26 9 58 27 31 19 75 39 97 45
22 6 57 22 77 36 20 14 41 25 47 25 5 0 11 4 13 8 2 4 48 29 103 56 55 26 163
79 240 117 77 38 147 69 155 69 9 0 33 12 55 27 22 15 46 28 54 30 8 1 17 7
21 13 4 7 11 11 16 11 11 -1 97 31 104 38 9 11 94 49 123 56 15 4 27 11 27 15
0 5 13 11 30 15 16 3 40 15 54 26 14 11 30 17 36 14 5 -3 10 -2 10 3 0 6 15
13 33 16 19 3 44 17 56 30 13 13 39 27 59 32 21 4 44 9 52 11 8 2 21 5 28 5 6
1 12 5 12 10 0 5 4 7 9 4 8 -5 100 38 111 53 3 3 12 7 20 9 8 2 36 14 62 27
48 24 65 20 72 -17 4 -19 16 -47 45 -108 14 -30 27 -68 28 -84 2 -16 8 -35 14
-42 6 -8 9 -14 5 -14 -3 0 1 -17 10 -37 9 -21 17 -47 19 -58 5 -37 26 -118 32
-128 4 -6 7 -24 8 -41 1 -17 7 -51 13 -76 7 -25 12 -76 12 -113 0 -38 4 -76 9
-85 18 -34 23 -211 24 -832 0 -587 -3 -756 -17 -779 -9 -14 -38 -200 -41 -266
-2 -33 -8 -85 -14 -115 -5 -30 -12 -102 -15 -160 -5 -96 -11 -155 -16 -155 -2
0 -3 -11 -4 -25 -1 -14 -5 -30 -8 -35 -4 -6 -6 -33 -6 -60 1 -75 -16 -320 -22
-320 -1 0 -9 -118 -11 -168 0 -9 -4 -17 -9 -17 -5 0 -9 -8 -9 -18 0 -9 -2 -30
-5 -47 -3 -16 -8 -57 -11 -90 -4 -33 -9 -63 -11 -67 -3 -4 -5 -47 -6 -95 0
-49 -3 -92 -6 -98 -3 -5 -7 -39 -8 -75 -2 -73 -53 -374 -84 -490 -11 -41 -21
-84 -23 -95 -2 -11 -11 -38 -20 -59 -16 -36 -29 -84 -30 -113 0 -7 -4 -13 -7
-13 -4 0 -8 -12 -8 -27 0 -16 -4 -44 -7 -63 -4 -19 -7 -41 -8 -47 0 -7 -5 -13
-10 -13 -6 0 -8 -3 -4 -6 3 -3 -3 -25 -13 -48 -19 -45 -50 -182 -50 -222 0
-13 9 -33 20 -44 16 -16 24 -18 49 -9 30 11 191 158 191 175 0 5 9 15 21 22
12 7 19 16 16 19 -3 2 8 19 24 35 16 17 29 34 29 39 0 4 7 14 14 22 20 20 166
244 169 260 1 6 5 14 8 17 11 9 68 114 110 200 23 47 44 87 48 90 3 3 7 12 9
20 2 8 12 35 24 60 35 76 78 188 78 202 0 8 5 19 10 24 6 6 13 28 15 50 3 21
8 50 10 64 3 14 7 52 11 84 3 33 8 65 12 70 7 12 8 16 17 61 14 75 18 91 23
100 4 6 8 19 9 30 2 10 7 22 11 25 4 3 8 12 9 20 1 8 13 68 27 133 15 65 24
123 21 128 -4 5 -2 9 2 9 5 0 15 42 22 93 7 50 15 101 18 112 11 43 15 84 19
175 8 180 12 230 30 350 3 19 6 43 5 52 0 10 4 18 8 18 4 0 8 6 9 13 1 6 4 28
7 47 3 19 7 69 10 110 5 70 10 118 14 130 1 3 2 42 2 88 0 45 3 82 7 82 4 0 7
26 8 58 1 60 13 161 21 175 2 4 8 65 13 135 5 70 11 138 14 152 3 14 7 66 10
115 3 50 7 99 10 110 17 80 35 180 42 235 10 89 13 1461 3 1481 -5 10 -10 48
-12 85 -7 115 -28 299 -36 304 -4 3 -8 25 -10 50 -1 25 -6 59 -11 75 -24 84
-33 121 -31 129 1 4 -4 18 -12 30 -13 20 -32 105 -30 134 0 6 -4 12 -10 12 -6
0 -7 3 -4 7 4 3 0 15 -10 25 -9 10 -13 18 -9 18 3 0 -1 11 -10 25 -9 14 -13
25 -9 25 3 0 -1 7 -9 16 -9 8 -16 28 -16 44 0 16 -3 30 -7 32 -5 2 -18 21 -30
43 -28 51 -64 66 -101 42 -27 -17 -79 -42 -202 -98 -36 -17 -76 -36 -90 -44
-20 -10 -77 -26 -110 -30 -18 -2 -70 -29 -70 -36 0 -5 -6 -9 -14 -9 -7 0 -19
-6 -25 -14 -7 -8 -27 -17 -46 -20 -19 -4 -35 -10 -35 -14 0 -11 -136 -78 -175
-86 -5 -1 -30 -13 -55 -26 -25 -12 -46 -22 -48 -21 -2 2 -233 -112 -345 -170
-18 -9 -40 -15 -49 -14 -10 2 -18 0 -18 -5 0 -10 -80 -55 -92 -52 -5 1 -8 -2
-8 -6 0 -4 -16 -14 -35 -21 -19 -7 -35 -17 -35 -22 0 -6 -4 -7 -10 -4 -5 3
-10 2 -10 -3 0 -5 -6 -9 -13 -9 -21 0 -187 -82 -187 -92 0 -5 -8 -8 -17 -6
-16 2 -130 -50 -143 -66 -4 -5 -35 -18 -60 -24 -16 -5 -46 -19 -50 -25 -3 -4
-30 -20 -60 -36 -30 -16 -59 -34 -65 -41 -5 -6 -48 -28 -95 -49 -47 -20 -97
-45 -111 -55 -29 -21 -80 -43 -91 -41 -5 1 -8 -2 -8 -7 0 -4 -20 -14 -45 -21
-25 -7 -45 -16 -45 -21 0 -4 -12 -10 -27 -14 -16 -3 -64 -26 -108 -51 -44 -24
-127 -67 -185 -96 -58 -28 -112 -57 -121 -65 -15 -13 -26 -16 -92 -28 -15 -3
-36 -9 -45 -14 -9 -5 -37 -19 -62 -32 -62 -31 -69 -34 -124 -52 l-48 -15 4 56
c3 31 10 58 17 60 6 2 9 7 6 11 -2 5 5 32 16 62 32 84 50 141 53 174 2 17 6
37 10 45 8 21 27 102 28 120 0 8 5 21 11 28 5 6 6 12 2 12 -4 0 -2 7 5 15 6 8
9 19 5 25 -3 5 -2 10 2 10 5 0 10 15 12 33 2 32 5 56 16 137 4 25 8 79 11 120
6 109 7 120 14 120 4 0 7 16 8 35 1 20 4 40 7 44 13 22 17 126 17 526 1 282
-2 442 -9 465 -7 23 -11 164 -10 399 1 340 -1 365 -17 377 -12 8 -17 21 -13
34 3 11 1 20 -5 20 -6 0 -8 6 -5 14 3 8 3 17 -1 21 -4 3 -7 32 -7 64 -1 31 -5
63 -9 70 -5 7 -10 34 -11 60 -1 27 -8 58 -14 69 -7 12 -10 22 -7 22 3 0 1 14
-4 31 -5 18 -12 64 -16 103 -3 39 -10 89 -16 111 -6 22 -10 41 -9 43 1 1 -6
19 -15 40 -20 44 -35 126 -39 202 -2 30 -8 68 -14 83 -6 16 -11 54 -11 85 0
31 -5 89 -11 127 -6 39 -12 84 -13 100 0 17 -4 33 -9 36 -4 3 -9 23 -11 45 -2
21 -8 57 -12 79 -4 22 -8 58 -10 80 -1 22 -3 41 -4 43 -1 1 -3 5 -4 10 -1 4
-5 14 -11 22 -5 8 -10 30 -11 50 -1 19 -14 70 -28 112 -14 43 -28 93 -32 112
-3 20 -12 40 -20 47 -8 6 -11 16 -8 21 10 15 -18 130 -54 228 -3 8 -4 18 -4
23 1 4 -2 7 -6 7 -9 0 -30 55 -37 95 -2 11 -4 21 -5 23 -2 1 -3 5 -4 10 -1 4
-9 19 -19 33 -10 15 -19 36 -22 47 -2 11 -13 38 -24 61 -12 22 -19 41 -17 41
3 0 -6 16 -19 36 -14 20 -25 43 -25 50 0 8 -18 51 -40 98 -22 46 -40 88 -40
93 0 4 -11 29 -25 55 -14 26 -24 51 -23 55 5 21 -17 79 -37 95 -12 9 -30 37
-39 62 -18 48 -35 60 -66 48 -29 -11 -123 -92 -158 -137 -17 -22 -42 -52 -54
-67 -49 -56 -58 -68 -58 -76 0 -4 -13 -21 -28 -39 -31 -36 -66 -94 -64 -105 1
-5 -3 -8 -8 -8 -6 0 -10 -5 -10 -10 0 -6 -9 -20 -20 -32 -10 -12 -17 -24 -15
-28 3 -4 -4 -15 -15 -25 -11 -10 -20 -21 -20 -25 0 -5 -21 -45 -47 -91 -25
-45 -46 -89 -46 -96 0 -7 -4 -13 -7 -13 -6 0 -48 -84 -55 -110 -1 -3 -10 -23
-19 -44 -10 -22 -20 -48 -22 -59 -2 -10 -7 -24 -12 -31 -13 -15 -22 -50 -45
-171 -12 -61 -12 -75 1 -105 9 -19 17 -41 18 -49 2 -13 17 -26 36 -33 4 -2 12
-27 18 -57 5 -30 15 -60 22 -68 15 -19 58 -112 58 -128 0 -7 14 -38 30 -69 17
-31 28 -60 26 -65 -3 -4 5 -18 18 -32 12 -13 23 -31 23 -39 1 -27 8 -44 25
-64 10 -11 18 -29 18 -41 0 -12 9 -32 20 -45 11 -13 20 -26 21 -29 1 -3 2 -17
4 -31 4 -42 17 -90 26 -96 5 -3 7 -10 4 -15 -4 -5 1 -12 9 -15 9 -3 16 -14 16
-24 0 -10 5 -31 12 -47 6 -15 10 -33 9 -40 -1 -6 3 -14 9 -18 5 -3 10 -21 10
-39 0 -17 18 -87 39 -154 22 -68 42 -136 45 -152 5 -32 -10 -51 -20 -26 -3 9
-12 16 -19 16 -7 0 -24 9 -39 21 -18 14 -26 16 -26 7 0 -9 -2 -10 -8 -1 -4 6
-21 15 -37 19 -17 4 -36 12 -44 17 -7 6 -20 12 -28 13 -8 2 -22 9 -31 17 -20
16 -51 30 -72 31 -8 1 -24 11 -37 24 -12 12 -29 22 -38 22 -16 0 -84 34 -140
70 -16 10 -50 29 -75 42 -25 13 -48 27 -52 33 -4 5 -8 6 -8 1 0 -4 -11 -1 -25
8 -14 9 -25 14 -25 10 0 -3 -14 6 -31 20 -29 25 -41 30 -65 27 -6 -1 -17 6
-24 14 -7 8 -21 15 -31 15 -10 0 -22 7 -27 17 -5 9 -18 17 -29 18 -17 1 -48
20 -90 55 -7 5 -19 10 -28 10 -8 0 -15 4 -15 8 0 5 -6 9 -13 9 -6 0 -32 12
-56 27 -23 15 -52 29 -64 32 -11 2 -23 8 -26 12 -3 5 -26 20 -51 32 -25 13
-53 32 -62 42 -15 18 -36 31 -114 72 -20 11 -92 67 -120 94 -8 7 -14 10 -14 6
0 -4 -15 6 -32 23 -30 28 -50 39 -71 41 -5 1 -18 13 -29 27 -11 14 -22 24 -25
21 -5 -5 -14 3 -76 59 -21 19 -42 35 -46 35 -4 0 -18 12 -32 26 -23 25 -66 49
-81 46 -5 -1 -8 3 -8 8 0 6 -9 20 -20 32 -11 12 -20 19 -20 15 0 -3 -13 6 -29
21 -15 15 -38 34 -51 42 -13 8 -32 23 -42 33 -10 9 -22 17 -26 17 -5 0 -21 13
-37 30 -16 16 -47 42 -69 57 -22 16 -50 38 -62 51 -12 12 -25 22 -30 22 -14 1
-54 37 -54 48 0 11 -38 28 -53 24 -5 -1 -6 2 -2 8 3 5 1 10 -4 10 -6 0 -11 7
-11 15 0 8 -7 15 -16 15 -8 0 -12 5 -9 10 3 6 -3 10 -14 10 -11 0 -22 8 -25
18 -3 9 -18 23 -34 29 -15 7 -36 27 -46 44 -10 17 -20 28 -23 25 -3 -3 -11 0
-19 7 -31 28 -44 37 -50 37 -6 0 -30 21 -110 96 -18 16 -48 41 -68 55 -20 13
-36 29 -36 36 0 7 -21 27 -47 45 -27 17 -54 38 -61 45 -7 7 -17 13 -22 13 -5
0 -37 27 -72 59 -83 78 -89 83 -121 104 -15 10 -25 22 -22 27 3 5 -3 11 -13
14 -10 3 -45 33 -79 66 -33 33 -65 60 -70 60 -4 0 -27 18 -51 40 -23 22 -47
40 -54 40 -12 0 -68 58 -68 71 0 11 -99 109 -110 109 -8 0 -21 28 -26 60 -2 8
-8 16 -15 19 -7 2 -39 31 -72 65 -33 34 -64 60 -68 59 -5 -2 -9 2 -9 7 0 6 -6
10 -12 10 -7 0 -22 14 -33 30 -11 17 -30 33 -42 36 -13 4 -23 11 -23 18 0 17
-35 36 -59 31 -12 -2 -21 2 -22 8 -1 7 -34 41 -74 77 -40 36 -76 72 -79 81 -3
8 -26 35 -50 59 -25 25 -42 48 -40 52 3 5 0 8 -6 8 -6 0 -8 5 -5 10 3 6 2 10
-4 10 -5 0 -13 9 -16 20 -3 11 -13 20 -21 20 -8 0 -20 12 -27 28 -13 29 -31
52 -42 52 -4 0 -13 7 -21 15 -18 18 -42 18 -68 2z"/>
</g>
</svg>
